Simulation
nRows=28
nColumns=15
endheader
time  TH_x TH_y TH_z SC_y  SC_z  SC_x  AC_y  AC_z  AC_x  GH_y  GH_z  GH_yy  EL_x  PS_y
0.0  0.000000  0.000000  0.000000  -28.200577595290557  -0.16600247736913454  1.9654321162273067  47.302613996913216  3.738273602761109  -4.972812297426997  -108.82247812594612  2.246620925161871  140.59608477299338  22.83579394041289  0.000000
0.031  0.000000  0.000000  0.000000  -28.1854106486231  0.020732397427258256  2.180927658031304  47.10146919965336  3.7893942750916665  -5.105515039468216  -99.85922170248128  2.260258368884199  131.55308592265212  22.77347567770095  0.000000
0.062  0.000000  0.000000  0.000000  -28.092740420206184  0.12644301234871202  2.40725833761591  47.0034485277109  3.6494739762001216  -5.265274024878206  -91.2299295576476  2.2289587884308317  122.85189142410039  22.736808492259357  0.000000
0.093  0.000000  0.000000  0.000000  -28.079063281369287  0.1581890039750588  2.624807635801641  46.94251429126881  3.4155764980542243  -5.43982917338552  -82.359319514488  2.118757098640398  113.87843269173065  22.684869663545747  0.000000
0.124  0.000000  0.000000  0.000000  -28.054447223705296  0.13353949628385683  2.822402294602544  46.880557920015356  3.1621823985187696  -5.640268728437654  -72.86909751660832  1.959348584749607  104.24470750350909  22.602282665623736  0.000000
0.155  0.000000  0.000000  0.000000  -28.051609165354815  0.07544233134787733  3.0053379995657132  46.835743920167566  2.916322940911269  -5.85858816400259  -60.73211905274784  1.7844783625322747  91.92611560827909  22.48772106400031  0.000000
0.186  0.000000  0.000000  0.000000  -28.061252627806002  0.0024277721710078384  3.174151071416263  46.77969890444443  2.695360867217362  -6.078616037006697  -44.611848523158166  1.6692322046363124  75.55704898206112  22.34611703888271  0.000000
0.217  0.000000  0.000000  0.000000  -28.094695233116067  -0.07427014029881261  3.334195360258932  46.73499818435341  2.5003146486418606  -6.2977193858458484  -24.82056083546927  1.7132161376582544  55.44069670346513  22.176626265978694  0.000000
0.248  0.000000  0.000000  0.000000  -28.14919092711103  -0.14663697464934086  3.4897003697417266  46.68770703248033  2.334033533111806  -6.505547711896224  -5.987891137442148  1.997502551354684  36.1952485034164  21.993724868964907  0.000000
0.279  0.000000  0.000000  0.000000  -28.221031612877194  -0.20907736863576498  3.6444918651034226  46.651804582046665  2.1918624335356642  -6.701570197068825  8.255676080773986  2.5212619551560853  21.45026884029661  21.79879057827381  0.000000
0.31  0.000000  0.000000  0.000000  -28.303435182812887  -0.2594824235524403  3.8021984130416193  46.62280659017472  2.0735731596677414  -6.881078758590266  17.717326477791467  3.2364631570310127  11.401791890672724  21.60764360861905  0.000000
0.34099999999999997  0.000000  0.000000  0.000000  -28.39062394068587  -0.29726944343672673  3.9655250352942586  46.60940889935041  1.9735652719037131  -7.042421142130119  23.8552483494736  4.102767926705064  4.593439210010306  21.427456334822395  0.000000
0.372  0.000000  0.000000  0.000000  -28.479570400142336  -0.32554627866059843  4.137559848106845  46.615602816868275  1.8893864978683221  -7.183918589389772  27.823535878136543  5.093401226265152  -0.12626220625982942  21.28007221178815  0.000000
0.403  0.000000  0.000000  0.000000  -28.569109823063844  -0.3476195974521789  4.320530895692769  46.64799816788752  1.8163743791608877  -7.3033944683171645  30.349017307568666  6.191987784705212  -3.4845744808128014  21.18384663704072  0.000000
0.434  0.000000  0.000000  0.000000  -28.658404165344315  -0.36822987190997164  4.516072477605172  46.711095439510814  1.7543498109574807  -7.403641659109159  31.88514039196744  7.387407340618614  -5.932889853549876  21.156138611897205  0.000000
0.46499999999999997  0.000000  0.000000  0.000000  -28.74357959217746  -0.38896071891176554  4.7257391086868985  46.80288732747442  1.7048172618588626  -7.486345205261004  32.71194070816581  8.66886070377466  -7.736325981317215  21.196707336114578  0.000000
0.496  0.000000  0.000000  0.000000  -28.815590659344565  -0.40716154676465294  4.940888641019121  46.92045638033537  1.67742177790898  -7.549789127129942  33.041656750992026  10.029090698607112  -9.079673838920307  21.28889783201657  0.000000
0.527  0.000000  0.000000  0.000000  -28.86442619561407  -0.4148964088728994  5.159851635069512  47.05578074136914  1.6732140412895828  -7.589798696859536  33.00298907401319  11.460122212814925  -10.05536874702297  21.403104108202548  0.000000
0.558  0.000000  0.000000  0.000000  -28.884284992577825  -0.40174100599850854  5.386894540683655  47.20203468736673  1.6890761893246746  -7.609812872573676  32.721061405771174  12.956846475916178  -10.75875858544501  21.511928706030215  0.000000
0.589  0.000000  0.000000  0.000000  -28.880938799430275  -0.35788219267268856  5.629103144976665  47.34962893577438  1.721209249960592  -7.612588329976424  32.291452318921586  14.512677762550654  -11.265413932634441  21.597508203544315  0.000000
0.62  0.000000  0.000000  0.000000  -28.864382544008585  -0.27650271442465296  5.89335750907197  47.49158866578037  1.7664940902710677  -7.6045030335699435  31.800690922897612  16.122728606178708  -11.656053818399082  21.65180648886784  0.000000
0.651  0.000000  0.000000  0.000000  -28.846729018435266  -0.1552325356665802  6.187237403806974  47.624429092136076  1.8209975690136346  -7.590199677261705  31.29928903885453  17.781484339360418  -11.981532525168305  21.67351131957047  0.000000
0.6819999999999999  0.000000  0.000000  0.000000  -28.831292864239575  0.002380425860886963  6.515915609517254  47.748785919639104  1.8811049886243127  -7.57487931853249  30.8106399508241  19.484916556933282  -12.272744080493302  21.66519949686424  0.000000
0.713  0.000000  0.000000  0.000000  -28.817068381428555  0.18760256480898874  6.881923412196778  47.86951057044261  1.943986559599402  -7.561516365342809  30.327817100991524  21.22957523383277  -12.53150141017656  21.632890230775892  0.000000
0.744  0.000000  0.000000  0.000000  -28.797485752815255  0.3901634441955689  7.284485116744712  47.99235493493959  2.0085423514285003  -7.552388096769552  29.839920232148792  23.01129574124749  -12.756430725977156  21.58354294434447  0.000000
0.775  0.000000  0.000000  0.000000  -28.768801181157382  0.6017237146455265  7.722457180295055  48.12221222613105  2.075172283579694  -7.548146285439377  29.34184555840476  24.82182151767972  -12.94787209373754  21.522245701037537  0.000000
0.806  0.000000  0.000000  0.000000  -28.729228930956815  0.8183395782028978  8.195030959268966  48.26118289314427  2.1456655447624886  -7.5493978045502175  28.84751479952051  26.647445955408152  -13.121824813031278  21.449209879751262  0.000000
0.837  0.000000  0.000000  0.000000  -28.682376575626346  1.0399497042937653  8.703595270912173  48.408814592860885  2.221272730460001  -7.555731541332769  28.37785934564437  28.469549249318653  -13.298264969178277  21.360358169686336  0.000000
